<?xml version="1.0" encoding="UTF-8"?>
<svg id="_Слой_2" data-name="Слой 2" xmlns="http://www.w3.org/2000/svg" viewBox="0 0 327.42 325.42">
  <defs>
    <style>
      .cls-1 {
        stroke: #a1ce13;
      }

      .cls-1, .cls-2, .cls-3, .cls-4 {
        fill: none;
        stroke-miterlimit: 22.93;
        stroke-width: 4px;
      }

      .cls-1, .cls-2, .cls-4, .cls-5, .cls-6, .cls-7 {
        fill-rule: evenodd;
      }

      .cls-2 {
        stroke: #f4cf0d;
      }

      .cls-3 {
        stroke: #ff458a;
      }

      .cls-4 {
        stroke: #028cc9;
      }

      .cls-5 {
        fill: #028cc9;
      }

      .cls-5, .cls-6, .cls-8, .cls-7 {
        opacity: .3;
      }

      .cls-6 {
        fill: #a1ce13;
      }

      .cls-8 {
        fill: #ff458a;
      }

      .cls-7 {
        fill: #f4cf0d;
      }
    </style>
  </defs>
  <g id="text">
    <g>
      <path class="cls-5" d="M308.78,130.99l-175.79,175.79c-14.55,14.55-38.36,14.55-52.9,0l-61.44-61.44c-14.55-14.55-14.55-38.36,0-52.9L194.43,16.64c14.55-14.55,38.36-14.55,52.9,0l61.44,61.44c14.55,14.55,14.55,38.36,0,52.9Z"/>
      <path class="cls-4" d="M308.78,131.58l-175.79,175.79c-14.55,14.55-38.36,14.55-52.9,0l-61.44-61.44c-14.55-14.55-14.55-38.36,0-52.9L194.43,17.23c14.55-14.55,38.36-14.55,52.9,0l61.44,61.44c14.55,14.55,14.55,38.36,0,52.9Z"/>
      <path class="cls-7" d="M132.99,16.64l175.79,175.79c14.55,14.55,14.55,38.36,0,52.9l-61.44,61.44c-14.55,14.55-38.36,14.55-52.91,0L18.64,130.99c-14.55-14.55-14.55-38.36,0-52.9L80.09,16.64c14.55-14.55,38.36-14.55,52.9,0Z"/>
      <path class="cls-2" d="M132.99,17.23l175.79,175.79c14.55,14.55,14.55,38.36,0,52.9l-61.44,61.44c-14.55,14.55-38.36,14.55-52.91,0L18.64,131.58c-14.55-14.55-14.55-38.36,0-52.9L80.08,17.23c14.55-14.55,38.36-14.55,52.9,0Z"/>
      <rect class="cls-8" x="2" y="80.86" width="323.42" height="161.71" rx="37.41" ry="37.41"/>
      <rect class="cls-3" x="2" y="80.86" width="323.42" height="161.71" rx="37.41" ry="37.41"/>
      <path class="cls-6" d="M244.56,37.41v248.6c0,20.57-16.83,37.41-37.41,37.41H120.26c-20.58,0-37.41-16.83-37.41-37.41V37.41C82.85,16.83,99.69,0,120.26,0h86.89c20.57,0,37.41,16.83,37.41,37.41Z"/>
      <path class="cls-1" d="M244.56,37.41v248.6c0,20.57-16.83,37.41-37.41,37.41H120.26c-20.58,0-37.41-16.83-37.41-37.41V37.41C82.86,16.83,99.69,0,120.26,0h86.89c20.57,0,37.41,16.83,37.41,37.41Z"/>
    </g>
  </g>
</svg>